<svg width="1000" height="1000" viewBox="0 0 1000 1000" fill="none"
    xmlns="http://www.w3.org/2000/svg">
    <g clip-path="url(#clip0_12_42)">
        <path d="M1000 0H0V1000H1000V0Z" fill="#4D7E3E" />
        <g clip-path="url(#clip1_12_42)">
            <g clip-path="url(#clip2_12_42)">
                <g clip-path="url(#clip3_12_42)">
                    <path
                        d="M500.216 375.388C549.756 375.388 589.915 335.055 589.915 285.301C589.915 235.547 549.756 195.214 500.216 195.214C450.676 195.214 410.517 235.547 410.517 285.301C410.517 335.055 450.676 375.388 500.216 375.388Z"
                        fill="white" />
                    <path
                        d="M463.143 757.289H408.723C397.11 757.289 386.643 753.103 379.239 746.402C376.438 744.178 372.767 740.332 370.531 734.379C368.938 730.637 368.068 726.59 368.068 722.377C368.068 718.773 368.703 715.308 369.883 712.044C370.359 710.021 370.959 707.907 371.725 705.69L373.071 705.593C379.984 694.789 393.357 687.464 408.723 687.464H430.858L438.662 669.717H408.723C386.27 669.717 368.061 654.084 368.061 634.805C368.061 615.526 386.263 599.893 408.723 599.893H469.387L502.258 525.176L446.962 404.3C446.962 404.3 326.186 427.833 305.037 526.624L285.517 736.555C285.517 736.555 277.382 794.183 303.409 806.539C329.435 818.888 454.669 818.888 454.669 818.888C454.669 818.888 493.413 785.07 463.143 757.289Z"
                        fill="white" />
                    <path
                        d="M714.908 736.554L695.388 526.617C674.24 427.826 554.305 401.021 554.305 401.021L512.015 525.168L480.282 599.885H591.696C614.155 599.885 632.364 615.519 632.364 634.797C632.364 654.076 614.155 669.71 591.696 669.71H450.633L443.099 687.457H591.703C607.104 687.457 620.51 694.816 627.41 705.654L628.707 705.682C629.473 707.907 630.073 710.02 630.556 712.044C631.729 715.308 632.371 718.779 632.371 722.369C632.371 726.555 631.509 730.574 629.929 734.288C627.7 740.296 624.008 744.17 621.186 746.402C613.776 753.103 603.309 757.288 591.703 757.288H537.283C507.013 785.07 545.756 818.887 545.756 818.887C545.756 818.887 670.99 818.887 697.017 806.538C723.043 794.189 714.908 736.554 714.908 736.554Z"
                        fill="white" />
                </g>
                <path d="M950.759 380.947H49.667V619.279H950.759V380.947Z" fill="#4D7E3E" />
                <g clip-path="url(#clip4_12_42)">
                    <g clip-path="url(#clip5_12_42)">
                        <g clip-path="url(#clip6_12_42)">
                            <g clip-path="url(#clip7_12_42)">
                                <g clip-path="url(#clip8_12_42)">
                                    <g clip-path="url(#clip9_12_42)">
                                        <path
                                            d="M142.706 530.367C133.711 530.367 125.325 529.368 117.544 527.373C109.741 525.379 104.251 523.381 101.073 521.387C97.8724 519.392 95.7484 517.974 94.7036 517.133C91.9835 514.927 90.625 511.88 90.625 507.995C90.625 504.948 90.9921 502.062 91.7231 499.33C93.0816 494.184 95.5413 491.61 99.096 491.61C100.247 491.714 103.937 492.924 110.171 495.234C116.383 497.543 121.268 498.7 124.823 498.7C130.156 498.7 132.823 496.598 132.823 492.398C132.823 489.877 131.515 487.536 128.901 485.371C126.288 483.228 123.128 481.158 119.426 479.164C115.702 477.169 111.959 474.878 108.194 472.295C104.43 469.733 101.239 466.16 98.6254 461.581C96.0119 457.022 94.7036 451.697 94.7036 445.606C94.7036 435.523 99.6199 427.614 109.449 421.879C119.279 416.167 131.985 413.309 147.569 413.309C163.152 413.309 175.523 414.906 184.684 418.098C193.823 421.312 198.395 425.755 198.395 431.427C198.395 435.523 197.453 439.115 195.571 442.203C193.688 445.313 191.703 446.866 189.61 446.866C188.879 446.866 186.451 446.047 182.331 444.409C178.19 442.792 174.447 441.982 171.099 441.982C164.511 441.982 161.216 444.557 161.216 449.702C161.216 452.223 162.785 454.533 165.923 456.634C169.06 458.736 172.856 460.753 177.311 462.684C181.744 464.638 186.212 466.821 190.708 469.238C195.204 471.655 199.022 474.963 202.159 479.164C205.297 483.364 206.866 488.459 206.866 494.446C206.866 500.433 204.961 505.893 201.156 510.831C197.328 515.768 192.277 519.6 186.002 522.332C173.556 527.688 159.124 530.367 142.706 530.367ZM232.592 527.216C229.665 527.216 227.186 526.239 225.157 524.285C223.108 522.354 221.8 519.149 221.235 514.675C220.648 510.223 220.356 496.831 220.356 474.5C220.356 452.191 220.723 437.625 221.454 430.796C222.292 421.974 226.004 417.458 232.592 417.247C240.122 417.036 271.339 416.932 326.244 416.932C332.415 416.932 335.499 420.871 335.499 428.748C335.499 434.946 332.779 438.044 327.342 438.044H292.83C290.634 438.044 288.887 438.778 287.591 440.249C286.273 441.721 285.614 443.611 285.614 445.921V457.264C285.614 460.415 287.026 461.991 289.85 461.991H318.4C320.072 461.991 321.349 462.148 322.228 462.464C323.128 462.779 323.944 463.692 324.675 465.205C325.406 466.739 325.773 469.238 325.773 472.704C325.773 476.17 325.177 478.48 323.985 479.636C322.77 480.793 320.806 481.369 318.086 481.369H292.517C289.903 481.369 288.102 482.022 287.12 483.323C286.116 484.646 285.614 486.672 285.614 489.404V497.124C285.614 501.639 287.757 503.899 292.046 503.899H331.107C332.989 503.899 334.661 504.444 336.126 505.537C337.592 506.649 338.323 509.066 338.323 512.784C338.323 516.525 337.435 519.865 335.656 522.804C333.877 525.744 331.787 527.216 329.381 527.216H232.592ZM418.012 449.86L418.326 479.006C418.326 481.001 419.424 482 421.62 482C428.105 482 433.207 480.194 436.931 476.58C440.633 472.947 442.484 468.662 442.484 463.724C442.484 458.786 440.737 454.533 437.245 450.963C433.731 447.393 428.576 445.606 421.777 445.606C419.267 445.606 418.012 447.024 418.012 449.86ZM459.112 496.967C461.098 499.068 468.157 506.996 480.29 520.756C481.021 521.702 481.388 522.543 481.388 523.277C481.388 526.009 480.186 527.373 477.78 527.373C472.236 527.477 466.673 527.531 461.089 527.531C455.482 527.531 449.91 527.477 444.367 527.373C441.333 527.373 438.562 526.167 436.052 523.75L422.562 503.269C422.038 502.638 421.41 502.219 420.679 502.008C419.007 501.378 418.169 502.062 418.169 504.056V520.126C418.169 524.641 415.22 527.058 409.322 527.373C403.402 527.688 396.939 527.846 389.933 527.846C382.927 527.846 374.456 527.584 364.52 527.058C361.486 526.847 359.061 525.798 357.241 523.907C355.399 522.017 354.323 519.865 354.009 517.448C353.172 508.206 352.755 493.68 352.755 473.87C352.755 454.082 353.068 439.673 353.696 430.639C354.323 421.605 358.872 417.036 367.343 416.932C375.29 416.828 386.114 416.775 399.815 416.775C413.517 416.775 424.861 416.879 433.856 417.09C446.823 417.301 457.44 422.131 465.701 431.584C473.962 441.037 478.094 451.697 478.094 463.566C478.094 470.499 476.503 476.904 473.325 482.787C470.125 488.67 465.387 493.397 459.112 496.967ZM587.902 519.023C586.02 522.593 582.757 525.379 578.114 527.373C573.448 529.368 568.397 530.367 562.96 530.367C557.523 530.367 552.553 529.421 548.058 527.531C543.562 525.64 540.318 522.908 538.332 519.338C522.645 490.246 508.056 461.676 494.565 433.632C492.996 430.27 492.212 427.699 492.212 425.912C492.212 420.241 494.775 417.405 499.899 417.405L545.234 417.09C549.102 417.09 552.064 417.774 554.113 419.138C556.143 420.502 557.94 423.234 559.509 427.33L574.725 466.402C575.353 468.082 576.504 468.923 578.177 468.923C579.849 468.923 581.104 468.082 581.941 466.402L602.491 421.659C603.85 418.823 605.315 417.247 606.884 416.932C607.511 416.828 608.609 416.775 610.178 416.775L628.218 417.09C630.204 417.09 631.616 418.035 632.454 419.926C632.767 420.66 632.924 421.555 632.924 422.604C632.924 423.653 631.754 426.543 629.41 431.269C627.048 435.996 620.93 449.126 611.056 470.656C601.164 492.187 593.446 508.31 587.902 519.023ZM703.359 530.367C684.534 530.367 669.663 525.555 658.745 515.935C647.805 506.334 642.336 492.766 642.336 475.225C642.336 464.512 644.093 455.112 647.607 447.024C651.099 438.935 656.037 432.476 662.416 427.645C675.069 418.089 691.75 413.309 712.457 413.309C725.844 413.309 739.229 415.146 752.616 418.823C757.739 420.502 760.302 424.652 760.302 431.269C760.302 440.303 757.479 444.818 751.831 444.818C750.89 444.818 747.806 444.399 742.576 443.558C737.346 442.717 733.688 442.297 731.595 442.297C724.169 442.297 718.45 444.891 714.434 450.08C710.396 455.289 708.379 461.496 708.379 468.702C708.379 475.887 710.261 482.211 714.026 487.671C717.791 493.132 722.914 495.968 729.399 496.179C733.791 496.39 741.582 496.494 752.773 496.494C758.21 496.494 761.19 499.068 761.714 504.214C762.028 506.104 762.185 508.017 762.185 509.949C762.185 511.902 762.028 513.878 761.714 515.872C761.087 519.654 758.16 522.404 752.93 524.128C747.7 525.87 740.17 527.351 730.34 528.571C720.511 529.768 711.516 530.367 703.359 530.367ZM886.269 416.932H906.662C908.755 416.932 909.799 417.981 909.799 420.083C909.799 421.448 909.225 422.919 908.074 424.495L872.935 480.424C872.935 488.932 872.675 501.324 872.151 517.605C872.047 519.915 871.053 522.039 869.17 523.97C867.288 525.924 864.778 527.005 861.64 527.216C855.679 527.635 848.517 527.846 840.149 527.846C831.782 527.846 824.095 527.635 817.089 527.216C813.952 527.005 811.442 525.924 809.56 523.97C807.677 522.039 806.683 519.915 806.579 517.605C806.369 506.996 806.265 495.968 806.265 484.52L774.578 431.112C773.009 428.695 772.225 426.7 772.225 425.125C772.225 419.872 774.788 417.247 779.911 417.247L833.561 416.932C836.595 416.932 838.872 417.405 840.4 418.35C841.906 419.295 843.704 421.24 845.797 424.179L855.366 444.818C857.038 447.128 858.431 448.284 859.538 448.284C860.627 448.284 861.954 447.339 863.523 445.448L879.524 420.241C881.302 418.035 883.549 416.932 886.269 416.932Z"
                                            fill="white" />
                                    </g>
                                </g>
                                <g clip-path="url(#clip10_12_42)">
                                    <g clip-path="url(#clip11_12_42)">
                                        <path
                                            d="M249.698 576.978L249.092 585.528H247.115L248.614 563.944H251.324L254.13 571.854L257.924 582.838C259.391 578.782 260.73 575.121 261.942 571.854L264.876 563.944H267.586L269.403 585.528H267.426L266.693 576.978L265.832 566.538C264.557 570.104 263.292 573.584 262.038 576.978L259.072 584.984H256.745L253.939 576.978L250.368 566.763C250.176 569.986 249.953 573.391 249.698 576.978ZM278.873 583.895C280.149 583.895 281.169 583.543 281.934 582.838C282.7 582.134 283.082 581.237 283.082 580.148V577.811H279.926C278.416 577.811 277.29 578.103 276.546 578.688C275.802 579.277 275.43 580.01 275.43 580.885C275.43 581.782 275.721 582.507 276.303 583.063C276.89 583.618 277.747 583.895 278.873 583.895ZM283.082 585.528V583.639C282.19 585.005 280.638 585.688 278.427 585.688C276.939 585.688 275.721 585.244 274.773 584.356C273.829 583.472 273.357 582.337 273.357 580.949C273.357 579.39 273.957 578.178 275.156 577.311C276.359 576.449 277.949 576.017 279.926 576.017H283.082V575.281C283.082 573.829 282.774 572.734 282.158 571.995C281.541 571.261 280.51 570.894 279.065 570.894C277.385 570.894 275.876 571.353 274.537 572.271V570.157C275.77 569.41 277.29 569.036 279.097 569.036C283.05 569.036 285.027 571.118 285.027 575.281V585.528H283.082ZM291.628 562.888V585.528H289.683V562.888H291.628ZM301.066 569.292L294.466 577.01L301.289 585.528H298.866L292.106 577.01L298.674 569.292H301.066ZM306.48 569.292V585.528H304.535V569.292H306.48ZM306.467 563.125C306.731 563.394 306.863 563.72 306.863 564.105C306.863 564.489 306.731 564.809 306.467 565.065C306.199 565.321 305.874 565.45 305.492 565.45C305.109 565.45 304.79 565.321 304.535 565.065C304.28 564.809 304.152 564.489 304.152 564.105C304.152 563.72 304.28 563.394 304.535 563.125C304.79 562.86 305.109 562.728 305.492 562.728C305.874 562.728 306.199 562.86 306.467 563.125ZM323.666 574.192V585.528H321.721V574.8C321.721 573.541 321.403 572.58 320.765 571.918C320.127 571.256 319.288 570.926 318.246 570.926C316.928 570.926 315.791 571.432 314.834 572.443C313.878 573.46 313.399 574.832 313.399 576.562V585.528H311.454V569.292H313.399V572.078C314.398 570.05 316.11 569.036 318.533 569.036C320.085 569.036 321.328 569.517 322.264 570.477C323.199 571.438 323.666 572.676 323.666 574.192ZM340.853 569.292V584.279C340.853 586.735 340.194 588.577 338.876 589.807C337.558 591.032 335.857 591.645 333.774 591.645C331.925 591.645 330.352 591.335 329.055 590.716V588.795C330.373 589.457 331.893 589.787 333.615 589.787C335.23 589.787 336.516 589.346 337.473 588.462C338.43 587.574 338.908 586.179 338.908 584.279V582.166C337.824 584.151 336.208 585.144 334.061 585.144C332.191 585.144 330.601 584.45 329.291 583.063C327.986 581.675 327.333 579.796 327.333 577.426C327.333 574.993 327.933 572.986 329.132 571.406C330.335 569.826 331.914 569.036 333.87 569.036C336.187 569.036 337.866 570.072 338.908 572.142V569.292H340.853ZM329.374 577.33C329.374 579.273 329.863 580.75 330.841 581.762C331.819 582.779 332.903 583.287 334.093 583.287C335.305 583.287 336.41 582.811 337.409 581.858C338.408 580.911 338.908 579.455 338.908 577.49C338.908 575.249 338.43 573.588 337.473 572.508C336.516 571.432 335.443 570.894 334.253 570.894C332.743 570.894 331.553 571.491 330.681 572.687C329.81 573.882 329.374 575.43 329.374 577.33ZM355.291 562.888V585.528H353.346V562.888H355.291ZM362.338 569.292V585.528H360.392V569.292H362.338ZM362.325 563.125C362.588 563.394 362.72 563.72 362.72 564.105C362.72 564.489 362.588 564.809 362.325 565.065C362.057 565.321 361.732 565.45 361.349 565.45C360.966 565.45 360.648 565.321 360.392 565.065C360.137 564.809 360.01 564.489 360.01 564.105C360.01 563.72 360.137 563.394 360.392 563.125C360.648 562.86 360.966 562.728 361.349 562.728C361.732 562.728 362.057 562.86 362.325 563.125ZM374.454 569.292V570.958H370.755V585.528H368.81V570.958H365.845V569.292H368.81V567.563C368.81 566.09 369.193 564.916 369.958 564.041C370.723 563.165 371.797 562.728 373.179 562.728C373.583 562.728 374.018 562.792 374.486 562.92V564.841C374.04 564.67 373.572 564.585 373.083 564.585C372.445 564.585 371.897 564.835 371.438 565.334C370.983 565.838 370.755 566.592 370.755 567.595V569.292H374.454ZM389.249 582.742V584.728C387.974 585.368 386.486 585.688 384.785 585.688C382.383 585.688 380.432 584.935 378.931 583.428C377.434 581.925 376.686 579.946 376.686 577.49C376.686 574.886 377.345 572.836 378.663 571.342C379.981 569.847 381.692 569.1 383.797 569.1C385.774 569.1 387.347 569.751 388.516 571.054C389.685 572.356 390.269 574.192 390.269 576.562C390.269 577.288 390.227 577.864 390.142 578.291H378.727C378.876 580.084 379.492 581.455 380.576 582.403C381.66 583.355 383.095 583.831 384.881 583.831C386.709 583.831 388.165 583.468 389.249 582.742ZM383.733 570.926C382.372 570.926 381.235 571.406 380.321 572.367C379.407 573.327 378.876 574.704 378.727 576.498H388.261V575.761C388.261 574.288 387.85 573.114 387.03 572.239C386.214 571.363 385.115 570.926 383.733 570.926ZM413.508 582.742V584.728C412.232 585.368 410.744 585.688 409.044 585.688C406.642 585.688 404.692 584.935 403.196 583.428C401.695 581.925 400.945 579.946 400.945 577.49C400.945 574.886 401.604 572.836 402.922 571.342C404.24 569.847 405.951 569.1 408.055 569.1C410.032 569.1 411.605 569.751 412.774 571.054C413.943 572.356 414.528 574.192 414.528 576.562C414.528 577.288 414.486 577.864 414.401 578.291H402.985C403.134 580.084 403.751 581.455 404.835 582.403C405.919 583.355 407.354 583.831 409.139 583.831C410.968 583.831 412.424 583.468 413.508 582.742ZM407.992 570.926C406.631 570.926 405.494 571.406 404.58 572.367C403.666 573.327 403.134 574.704 402.985 576.498H412.519V575.761C412.519 574.288 412.111 573.114 411.295 572.239C410.474 571.363 409.373 570.926 407.992 570.926ZM423.169 583.895C424.445 583.895 425.465 583.543 426.23 582.838C426.995 582.134 427.378 581.237 427.378 580.148V577.811H424.221C422.712 577.811 421.585 578.103 420.841 578.688C420.097 579.277 419.725 580.01 419.725 580.885C419.725 581.782 420.017 582.507 420.599 583.063C421.186 583.618 422.042 583.895 423.169 583.895ZM427.378 585.528V583.639C426.485 585.005 424.933 585.688 422.723 585.688C421.235 585.688 420.017 585.244 419.069 584.356C418.125 583.472 417.653 582.337 417.653 580.949C417.653 579.39 418.252 578.178 419.451 577.311C420.654 576.449 422.244 576.017 424.221 576.017H427.378V575.281C427.378 573.829 427.07 572.734 426.453 571.995C425.837 571.261 424.806 570.894 423.36 570.894C421.681 570.894 420.172 571.353 418.833 572.271V570.157C420.066 569.41 421.585 569.036 423.392 569.036C427.346 569.036 429.323 571.118 429.323 575.281V585.528H427.378ZM443.385 581.365C443.385 582.71 442.921 583.771 441.994 584.548C441.072 585.33 439.803 585.72 438.187 585.72C436.232 585.72 434.659 585.4 433.468 584.76V582.742C434.892 583.554 436.423 583.959 438.06 583.959C439.144 583.959 439.967 583.735 440.528 583.287C441.093 582.838 441.376 582.251 441.376 581.525C441.376 580.671 441.083 580.01 440.496 579.54C439.913 579.07 438.953 578.569 437.613 578.035C436.317 577.522 435.286 576.925 434.52 576.241C433.755 575.558 433.373 574.619 433.373 573.423C433.373 572.121 433.851 571.079 434.807 570.298C435.764 569.521 436.965 569.132 438.41 569.132C440.154 569.132 441.493 569.378 442.428 569.869V571.822C441.429 571.246 440.079 570.958 438.379 570.958C437.443 570.958 436.704 571.175 436.159 571.611C435.619 572.051 435.349 572.623 435.349 573.327C435.349 573.754 435.428 574.128 435.585 574.448C435.747 574.768 436.023 575.061 436.414 575.326C436.81 575.595 437.146 575.793 437.422 575.921C437.698 576.049 438.145 576.241 438.761 576.498C440.249 577.095 441.391 577.751 442.186 578.464C442.985 579.181 443.385 580.148 443.385 581.365ZM448.99 569.292V585.528H447.045V569.292H448.99ZM448.977 563.125C449.241 563.394 449.373 563.72 449.373 564.105C449.373 564.489 449.241 564.809 448.977 565.065C448.71 565.321 448.384 565.45 448.002 565.45C447.619 565.45 447.3 565.321 447.045 565.065C446.79 564.809 446.663 564.489 446.663 564.105C446.663 563.72 446.79 563.394 447.045 563.125C447.3 562.86 447.619 562.728 448.002 562.728C448.384 562.728 448.71 562.86 448.977 563.125ZM465.539 582.742V584.728C464.263 585.368 462.775 585.688 461.075 585.688C458.673 585.688 456.724 584.935 455.227 583.428C453.726 581.925 452.976 579.946 452.976 577.49C452.976 574.886 453.635 572.836 454.953 571.342C456.271 569.847 457.982 569.1 460.086 569.1C462.063 569.1 463.636 569.751 464.805 571.054C465.975 572.356 466.559 574.192 466.559 576.562C466.559 577.288 466.517 577.864 466.432 578.291H455.017C455.165 580.084 455.782 581.455 456.866 582.403C457.95 583.355 459.385 583.831 461.171 583.831C462.999 583.831 464.455 583.468 465.539 582.742ZM460.023 570.926C458.662 570.926 457.525 571.406 456.611 572.367C455.697 573.327 455.165 574.704 455.017 576.498H464.55V575.761C464.55 574.288 464.142 573.114 463.326 572.239C462.505 571.363 461.404 570.926 460.023 570.926ZM472.458 576.466V585.528H470.513V569.292H472.458V572.046C473.351 570.082 474.86 569.1 476.986 569.1C477.135 569.1 477.4 569.122 477.783 569.164V571.15C477.358 571.022 476.933 570.958 476.508 570.958C475.36 570.958 474.397 571.528 473.619 572.668C472.845 573.812 472.458 575.078 472.458 576.466ZM495.378 569.292V570.958H491.679V585.528H489.734V570.958H486.768V569.292H489.734V567.563C489.734 566.09 490.116 564.916 490.882 564.041C491.647 563.165 492.72 562.728 494.102 562.728C494.506 562.728 494.942 562.792 495.409 562.92V564.841C494.963 564.67 494.495 564.585 494.006 564.585C493.369 564.585 492.822 564.835 492.368 565.334C491.908 565.838 491.679 566.592 491.679 567.595V569.292H495.378ZM512.628 577.49C512.628 579.903 511.954 581.893 510.606 583.46C509.254 585.031 507.398 585.817 505.039 585.817C502.764 585.817 500.958 585.027 499.618 583.447C498.279 581.867 497.61 579.881 497.61 577.49C497.61 575.121 498.3 573.125 499.682 571.502C501.064 569.879 502.849 569.068 505.039 569.068C507.441 569.068 509.307 569.862 510.638 571.451C511.965 573.043 512.628 575.057 512.628 577.49ZM499.65 577.49C499.65 579.262 500.146 580.782 501.136 582.051C502.122 583.323 503.423 583.959 505.039 583.959C506.803 583.959 508.17 583.334 509.139 582.083C510.104 580.836 510.587 579.305 510.587 577.49C510.587 575.612 510.13 574.047 509.216 572.796C508.302 571.549 506.91 570.926 505.039 570.926C503.36 570.926 502.042 571.566 501.085 572.847C500.129 574.128 499.65 575.676 499.65 577.49ZM518.431 576.466V585.528H516.486V569.292H518.431V572.046C519.324 570.082 520.833 569.1 522.959 569.1C523.107 569.1 523.373 569.122 523.756 569.164V571.15C523.331 571.022 522.906 570.958 522.48 570.958C521.333 570.958 520.37 571.528 519.592 572.668C518.818 573.812 518.431 575.078 518.431 576.466ZM541.956 583.095V585.08C541.34 585.486 540.628 585.688 539.82 585.688C536.759 585.688 535.228 584.109 535.228 580.949V570.958H532.582V569.292H535.228V565.225H537.205V569.292H541.829V570.958H537.205V581.045C537.205 582.902 538.066 583.831 539.788 583.831C540.638 583.831 541.361 583.586 541.956 583.095ZM558.027 574.192V585.528H556.082V574.8C556.082 573.541 555.763 572.58 555.125 571.918C554.487 571.256 553.648 570.926 552.606 570.926C551.288 570.926 550.151 571.432 549.194 572.443C548.238 573.46 547.759 574.832 547.759 576.562V585.528H545.814V562.888H547.759V572.078C548.737 570.05 550.448 569.036 552.893 569.036C554.445 569.036 555.688 569.517 556.624 570.477C557.559 571.438 558.027 572.676 558.027 574.192ZM576.712 577.49C576.712 579.903 576.036 581.893 574.684 583.46C573.336 585.031 571.482 585.817 569.123 585.817C566.848 585.817 565.041 585.027 563.702 583.447C562.363 581.867 561.693 579.881 561.693 577.49C561.693 575.121 562.384 573.125 563.766 571.502C565.148 569.879 566.933 569.068 569.123 569.068C571.525 569.068 573.389 569.862 574.716 571.451C576.046 573.043 576.712 575.057 576.712 577.49ZM563.734 577.49C563.734 579.262 564.227 580.782 565.214 582.051C566.204 583.323 567.507 583.959 569.123 583.959C570.887 583.959 572.252 583.334 573.217 582.083C574.186 580.836 574.671 579.305 574.671 577.49C574.671 575.612 574.214 574.047 573.3 572.796C572.386 571.549 570.993 570.926 569.123 570.926C567.444 570.926 566.126 571.566 565.169 572.847C564.212 574.128 563.734 575.676 563.734 577.49ZM589.97 581.365C589.97 582.71 589.508 583.771 588.586 584.548C587.663 585.33 586.394 585.72 584.779 585.72C582.819 585.72 581.246 585.4 580.06 584.76V582.742C581.484 583.554 583.014 583.959 584.651 583.959C585.735 583.959 586.558 583.735 587.119 583.287C587.685 582.838 587.967 582.251 587.967 581.525C587.967 580.671 587.674 580.01 587.087 579.54C586.505 579.07 585.544 578.569 584.205 578.035C582.908 577.522 581.877 576.925 581.112 576.241C580.347 575.558 579.964 574.619 579.964 573.423C579.964 572.121 580.442 571.079 581.399 570.298C582.355 569.521 583.556 569.132 585.002 569.132C586.745 569.132 588.082 569.378 589.013 569.869V571.822C588.018 571.246 586.671 570.958 584.97 570.958C584.035 570.958 583.295 571.175 582.751 571.611C582.211 572.051 581.941 572.623 581.941 573.327C581.941 573.754 582.02 574.128 582.177 574.448C582.338 574.768 582.615 575.061 583.006 575.326C583.397 575.595 583.733 575.793 584.013 575.921C584.29 576.049 584.734 576.241 585.346 576.498C586.834 577.095 587.978 577.751 588.777 578.464C589.572 579.181 589.97 580.148 589.97 581.365ZM605.084 582.742V584.728C603.808 585.368 602.32 585.688 600.62 585.688C598.218 585.688 596.268 584.935 594.772 583.428C593.271 581.925 592.521 579.946 592.521 577.49C592.521 574.886 593.18 572.836 594.497 571.342C595.815 569.847 597.527 569.1 599.631 569.1C601.608 569.1 603.181 569.751 604.35 571.054C605.519 572.356 606.104 574.192 606.104 576.562C606.104 577.288 606.061 577.864 605.976 578.291H594.561C594.71 580.084 595.327 581.455 596.411 582.403C597.495 583.355 598.93 583.831 600.715 583.831C602.543 583.831 603.999 583.468 605.084 582.742ZM599.567 570.926C598.207 570.926 597.07 571.406 596.156 572.367C595.242 573.327 594.71 574.704 594.561 576.498H604.095V575.761C604.095 574.288 603.687 573.114 602.871 572.239C602.05 571.363 600.949 570.926 599.567 570.926ZM625.363 580.212L623.864 585.528H621.25L616.307 569.292H618.444L620.038 574.672C620.633 576.679 621.137 578.423 621.549 579.905C621.966 581.391 622.238 582.369 622.366 582.838L622.525 583.575C622.908 582.187 623.758 579.209 625.076 574.64L626.606 569.292H628.902L630.497 574.64L633.111 583.639C633.451 582.379 634.355 579.38 635.821 574.64L637.479 569.292H639.52L634.418 585.528H631.804L630.241 580.212L627.754 571.566C627.393 572.911 626.596 575.793 625.363 580.212ZM655.106 574.192V585.528H653.161V574.8C653.161 573.541 652.842 572.58 652.204 571.918C651.567 571.256 650.727 570.926 649.685 570.926C648.367 570.926 647.23 571.432 646.274 572.443C645.317 573.46 644.839 574.832 644.839 576.562V585.528H642.894V562.888H644.839V572.078C645.817 570.05 647.528 569.036 649.972 569.036C651.524 569.036 652.768 569.517 653.703 570.477C654.638 571.438 655.106 572.676 655.106 574.192ZM673.791 577.49C673.791 579.903 673.117 581.893 671.769 583.46C670.417 585.031 668.562 585.817 666.202 585.817C663.928 585.817 662.121 585.027 660.782 583.447C659.442 581.867 658.773 579.881 658.773 577.49C658.773 575.121 659.464 573.125 660.845 571.502C662.227 569.879 664.013 569.068 666.202 569.068C668.604 569.068 670.471 569.862 671.801 571.451C673.128 573.043 673.791 575.057 673.791 577.49ZM660.813 577.49C660.813 579.262 661.309 580.782 662.299 582.051C663.286 583.323 664.587 583.959 666.202 583.959C667.966 583.959 669.333 583.334 670.303 582.083C671.268 580.836 671.75 579.305 671.75 577.49C671.75 575.612 671.293 574.047 670.379 572.796C669.465 571.549 668.073 570.926 666.202 570.926C664.523 570.926 663.205 571.566 662.248 572.847C661.292 574.128 660.813 575.676 660.813 577.49ZM694.772 581.365C694.772 582.71 694.308 583.771 693.382 584.548C692.459 585.33 691.19 585.72 689.574 585.72C687.619 585.72 686.046 585.4 684.855 584.76V582.742C686.28 583.554 687.81 583.959 689.447 583.959C690.531 583.959 691.354 583.735 691.915 583.287C692.48 582.838 692.763 582.251 692.763 581.525C692.763 580.671 692.47 580.01 691.883 579.54C691.3 579.07 690.34 578.569 689 578.035C687.704 577.522 686.673 576.925 685.908 576.241C685.142 575.558 684.76 574.619 684.76 573.423C684.76 572.121 685.238 571.079 686.195 570.298C687.151 569.521 688.352 569.132 689.798 569.132C691.541 569.132 692.88 569.378 693.815 569.869V571.822C692.816 571.246 691.466 570.958 689.766 570.958C688.83 570.958 688.091 571.175 687.546 571.611C687.007 572.051 686.737 572.623 686.737 573.327C686.737 573.754 686.815 574.128 686.973 574.448C687.134 574.768 687.41 575.061 687.802 575.326C688.197 575.595 688.533 575.793 688.809 575.921C689.085 576.049 689.532 576.241 690.148 576.498C691.636 577.095 692.778 577.751 693.573 578.464C694.372 579.181 694.772 580.148 694.772 581.365ZM709.879 582.742V584.728C708.604 585.368 707.116 585.688 705.415 585.688C703.013 585.688 701.064 584.935 699.567 583.428C698.067 581.925 697.316 579.946 697.316 577.49C697.316 574.886 697.975 572.836 699.293 571.342C700.611 569.847 702.322 569.1 704.427 569.1C706.404 569.1 707.977 569.751 709.146 571.054C710.315 572.356 710.9 574.192 710.9 576.562C710.9 577.288 710.857 577.864 710.772 578.291H699.357C699.506 580.084 700.122 581.455 701.206 582.403C702.29 583.355 703.725 583.831 705.511 583.831C707.339 583.831 708.795 583.468 709.879 582.742ZM704.363 570.926C703.003 570.926 701.865 571.406 700.951 572.367C700.037 573.327 699.506 574.704 699.357 576.498H708.891V575.761C708.891 574.288 708.483 573.114 707.666 572.239C706.846 571.363 705.745 570.926 704.363 570.926ZM716.798 576.466V585.528H714.853V569.292H716.798V572.046C717.691 570.082 719.2 569.1 721.326 569.1C721.475 569.1 721.741 569.122 722.123 569.164V571.15C721.698 571.022 721.273 570.958 720.848 570.958C719.7 570.958 718.739 571.528 717.965 572.668C717.187 573.812 716.798 575.078 716.798 576.466ZM737.333 569.292L731.593 585.528H728.979L723.399 569.292H725.439L727.703 576.113L730.286 583.959C730.499 583.169 731.381 580.554 732.933 576.113L735.292 569.292H737.333ZM752.287 582.742V584.728C751.012 585.368 749.524 585.688 747.823 585.688C745.421 585.688 743.47 584.935 741.969 583.428C740.473 581.925 739.724 579.946 739.724 577.49C739.724 574.886 740.383 572.836 741.701 571.342C743.019 569.847 744.73 569.1 746.835 569.1C748.812 569.1 750.385 569.751 751.554 571.054C752.723 572.356 753.308 574.192 753.308 576.562C753.308 577.288 753.265 577.864 753.18 578.291H741.765C741.914 580.084 742.53 581.455 743.614 582.403C744.698 583.355 746.133 583.831 747.919 583.831C749.747 583.831 751.203 583.468 752.287 582.742ZM746.771 570.926C745.411 570.926 744.273 571.406 743.359 572.367C742.445 573.327 741.914 574.704 741.765 576.498H751.299V575.761C751.299 574.288 750.889 573.114 750.068 572.239C749.252 571.363 748.153 570.926 746.771 570.926Z"
                                            fill="white" />
                                    </g>
                                </g>
                            </g>
                        </g>
                    </g>
                </g>
            </g>
        </g>
    </g>
    <defs>
        <clipPath id="clip0_12_42">
            <rect width="1000" height="1000" rx="500" fill="white" />
        </clipPath>
        <clipPath id="clip1_12_42">
            <rect width="1026.42" height="642.227" fill="white" transform="translate(-13 179)" />
        </clipPath>
        <clipPath id="clip2_12_42">
            <rect width="1023.97" height="642.746" fill="white"
                transform="translate(-11.7715 178.74)" />
        </clipPath>
        <clipPath id="clip3_12_42">
            <rect width="431.798" height="637.546" fill="white"
                transform="translate(284.313 181.341)" />
        </clipPath>
        <clipPath id="clip4_12_42">
            <rect width="819.174" height="183.063" fill="white"
                transform="translate(90.625 408.582)" />
        </clipPath>
        <clipPath id="clip5_12_42">
            <rect width="819.174" height="183.063" fill="white"
                transform="translate(90.625 408.582)" />
        </clipPath>
        <clipPath id="clip6_12_42">
            <rect width="819.174" height="183.063" fill="white"
                transform="translate(90.625 408.582)" />
        </clipPath>
        <clipPath id="clip7_12_42">
            <rect width="819.174" height="183.063" fill="white"
                transform="translate(90.625 408.582)" />
        </clipPath>
        <clipPath id="clip8_12_42">
            <rect width="819.174" height="126.511" fill="white"
                transform="translate(90.625 408.582)" />
        </clipPath>
        <clipPath id="clip9_12_42">
            <rect width="819.174" height="126.511" fill="white"
                transform="translate(90.625 408.582)" />
        </clipPath>
        <clipPath id="clip10_12_42">
            <rect width="506.25" height="28.9173" fill="white"
                transform="translate(247.087 562.728)" />
        </clipPath>
        <clipPath id="clip11_12_42">
            <rect width="506.25" height="28.9173" fill="white"
                transform="translate(247.087 562.728)" />
        </clipPath>
    </defs>
</svg>
    